<?xml version="1.0" encoding="UTF-8" standalone="no"?>
<!DOCTYPE svg PUBLIC "-//W3C//DTD SVG 1.1//EN"
 "http://www.w3.org/Graphics/SVG/1.1/DTD/svg11.dtd">
<!-- Generated by graphviz version 2.40.1 (20161225.0304)
 -->
<!-- Title: snakemake_dag Pages: 1 -->
<svg width="386pt" height="188pt"
 viewBox="0.00 0.00 386.00 188.00" xmlns="http://www.w3.org/2000/svg" xmlns:xlink="http://www.w3.org/1999/xlink">
<g id="graph0" class="graph" transform="scale(1 1) rotate(0) translate(4 184)">
<title>snakemake_dag</title>
<polygon fill="#ffffff" stroke="transparent" points="-4,4 -4,-184 382,-184 382,4 -4,4"/>
<!-- 0 -->
<g id="node1" class="node">
<title>0</title>
<path fill="none" stroke="#56d8a9" stroke-width="2" d="M204,-36C204,-36 174,-36 174,-36 168,-36 162,-30 162,-24 162,-24 162,-12 162,-12 162,-6 168,0 174,0 174,0 204,0 204,0 210,0 216,-6 216,-12 216,-12 216,-24 216,-24 216,-30 210,-36 204,-36"/>
<text text-anchor="middle" x="189" y="-15.5" font-family="sans" font-size="10.00" fill="#000000">all</text>
</g>
<!-- 1 -->
<g id="node2" class="node">
<title>1</title>
<path fill="none" stroke="#d85656" stroke-width="2" d="M102,-108C102,-108 12,-108 12,-108 6,-108 0,-102 0,-96 0,-96 0,-84 0,-84 0,-78 6,-72 12,-72 12,-72 102,-72 102,-72 108,-72 114,-78 114,-84 114,-84 114,-96 114,-96 114,-102 108,-108 102,-108"/>
<text text-anchor="middle" x="57" y="-87.5" font-family="sans" font-size="10.00" fill="#000000">calculate_DEG</text>
</g>
<!-- 1&#45;&gt;0 -->
<g id="edge1" class="edge">
<title>1&#45;&gt;0</title>
<path fill="none" stroke="#c0c0c0" stroke-width="2" d="M90.3092,-71.8314C109.4297,-61.402 133.4476,-48.3013 153.0019,-37.6353"/>
<polygon fill="#c0c0c0" stroke="#c0c0c0" stroke-width="2" points="154.8165,-40.6324 161.9194,-32.7712 151.4645,-34.4872 154.8165,-40.6324"/>
</g>
<!-- 2 -->
<g id="node3" class="node">
<title>2</title>
<path fill="none" stroke="#afd856" stroke-width="2" d="M94.5,-180C94.5,-180 19.5,-180 19.5,-180 13.5,-180 7.5,-174 7.5,-168 7.5,-168 7.5,-156 7.5,-156 7.5,-150 13.5,-144 19.5,-144 19.5,-144 94.5,-144 94.5,-144 100.5,-144 106.5,-150 106.5,-156 106.5,-156 106.5,-168 106.5,-168 106.5,-174 100.5,-180 94.5,-180"/>
<text text-anchor="middle" x="57" y="-165" font-family="sans" font-size="10.00" fill="#000000">get_matrix</text>
<text text-anchor="middle" x="57" y="-154" font-family="sans" font-size="10.00" fill="#000000">sample: CD4</text>
</g>
<!-- 2&#45;&gt;1 -->
<g id="edge4" class="edge">
<title>2&#45;&gt;1</title>
<path fill="none" stroke="#c0c0c0" stroke-width="2" d="M57,-143.8314C57,-136.131 57,-126.9743 57,-118.4166"/>
<polygon fill="#c0c0c0" stroke="#c0c0c0" stroke-width="2" points="60.5001,-118.4132 57,-108.4133 53.5001,-118.4133 60.5001,-118.4132"/>
</g>
<!-- 3 -->
<g id="node4" class="node">
<title>3</title>
<path fill="none" stroke="#d85656" stroke-width="2" d="M234,-108C234,-108 144,-108 144,-108 138,-108 132,-102 132,-96 132,-96 132,-84 132,-84 132,-78 138,-72 144,-72 144,-72 234,-72 234,-72 240,-72 246,-78 246,-84 246,-84 246,-96 246,-96 246,-102 240,-108 234,-108"/>
<text text-anchor="middle" x="189" y="-87.5" font-family="sans" font-size="10.00" fill="#000000">calculate_DEG</text>
</g>
<!-- 3&#45;&gt;0 -->
<g id="edge2" class="edge">
<title>3&#45;&gt;0</title>
<path fill="none" stroke="#c0c0c0" stroke-width="2" d="M189,-71.8314C189,-64.131 189,-54.9743 189,-46.4166"/>
<polygon fill="#c0c0c0" stroke="#c0c0c0" stroke-width="2" points="192.5001,-46.4132 189,-36.4133 185.5001,-46.4133 192.5001,-46.4132"/>
</g>
<!-- 4 -->
<g id="node5" class="node">
<title>4</title>
<path fill="none" stroke="#afd856" stroke-width="2" d="M226.5,-180C226.5,-180 151.5,-180 151.5,-180 145.5,-180 139.5,-174 139.5,-168 139.5,-168 139.5,-156 139.5,-156 139.5,-150 145.5,-144 151.5,-144 151.5,-144 226.5,-144 226.5,-144 232.5,-144 238.5,-150 238.5,-156 238.5,-156 238.5,-168 238.5,-168 238.5,-174 232.5,-180 226.5,-180"/>
<text text-anchor="middle" x="189" y="-165" font-family="sans" font-size="10.00" fill="#000000">get_matrix</text>
<text text-anchor="middle" x="189" y="-154" font-family="sans" font-size="10.00" fill="#000000">sample: CD8</text>
</g>
<!-- 4&#45;&gt;3 -->
<g id="edge5" class="edge">
<title>4&#45;&gt;3</title>
<path fill="none" stroke="#c0c0c0" stroke-width="2" d="M189,-143.8314C189,-136.131 189,-126.9743 189,-118.4166"/>
<polygon fill="#c0c0c0" stroke="#c0c0c0" stroke-width="2" points="192.5001,-118.4132 189,-108.4133 185.5001,-118.4133 192.5001,-118.4132"/>
</g>
<!-- 5 -->
<g id="node6" class="node">
<title>5</title>
<path fill="none" stroke="#d85656" stroke-width="2" d="M366,-108C366,-108 276,-108 276,-108 270,-108 264,-102 264,-96 264,-96 264,-84 264,-84 264,-78 270,-72 276,-72 276,-72 366,-72 366,-72 372,-72 378,-78 378,-84 378,-84 378,-96 378,-96 378,-102 372,-108 366,-108"/>
<text text-anchor="middle" x="321" y="-87.5" font-family="sans" font-size="10.00" fill="#000000">calculate_DEG</text>
</g>
<!-- 5&#45;&gt;0 -->
<g id="edge3" class="edge">
<title>5&#45;&gt;0</title>
<path fill="none" stroke="#c0c0c0" stroke-width="2" d="M287.6908,-71.8314C268.5703,-61.402 244.5524,-48.3013 224.9981,-37.6353"/>
<polygon fill="#c0c0c0" stroke="#c0c0c0" stroke-width="2" points="226.5355,-34.4872 216.0806,-32.7712 223.1835,-40.6324 226.5355,-34.4872"/>
</g>
<!-- 6 -->
<g id="node7" class="node">
<title>6</title>
<path fill="none" stroke="#afd856" stroke-width="2" d="M362.5,-180C362.5,-180 279.5,-180 279.5,-180 273.5,-180 267.5,-174 267.5,-168 267.5,-168 267.5,-156 267.5,-156 267.5,-150 273.5,-144 279.5,-144 279.5,-144 362.5,-144 362.5,-144 368.5,-144 374.5,-150 374.5,-156 374.5,-156 374.5,-168 374.5,-168 374.5,-174 368.5,-180 362.5,-180"/>
<text text-anchor="middle" x="321" y="-165" font-family="sans" font-size="10.00" fill="#000000">get_matrix</text>
<text text-anchor="middle" x="321" y="-154" font-family="sans" font-size="10.00" fill="#000000">sample: CD14</text>
</g>
<!-- 6&#45;&gt;5 -->
<g id="edge6" class="edge">
<title>6&#45;&gt;5</title>
<path fill="none" stroke="#c0c0c0" stroke-width="2" d="M321,-143.8314C321,-136.131 321,-126.9743 321,-118.4166"/>
<polygon fill="#c0c0c0" stroke="#c0c0c0" stroke-width="2" points="324.5001,-118.4132 321,-108.4133 317.5001,-118.4133 324.5001,-118.4132"/>
</g>
</g>
</svg>
