<?xml version="1.0" encoding="UTF-8" standalone="no"?>
<!DOCTYPE svg PUBLIC "-//W3C//DTD SVG 1.1//EN"
 "http://www.w3.org/Graphics/SVG/1.1/DTD/svg11.dtd">
<!-- Generated by graphviz version 2.40.1 (20161225.0304)
 -->
<!-- Title: snakemake_dag Pages: 1 -->
<svg width="680pt" height="548pt"
 viewBox="0.00 0.00 680.00 548.00" xmlns="http://www.w3.org/2000/svg" xmlns:xlink="http://www.w3.org/1999/xlink">
<g id="graph0" class="graph" transform="scale(1 1) rotate(0) translate(4 544)">
<title>snakemake_dag</title>
<polygon fill="#ffffff" stroke="transparent" points="-4,4 -4,-544 676,-544 676,4 -4,4"/>
<!-- 0 -->
<g id="node1" class="node">
<title>0</title>
<path fill="none" stroke="#569ad8" stroke-width="2" d="M351,-36C351,-36 321,-36 321,-36 315,-36 309,-30 309,-24 309,-24 309,-12 309,-12 309,-6 315,0 321,0 321,0 351,0 351,0 357,0 363,-6 363,-12 363,-12 363,-24 363,-24 363,-30 357,-36 351,-36"/>
<text text-anchor="middle" x="336" y="-15.5" font-family="sans" font-size="10.00" fill="#000000">all</text>
</g>
<!-- 1 -->
<g id="node2" class="node">
<title>1</title>
<path fill="none" stroke="#56d89a" stroke-width="2" d="M215.5,-108C215.5,-108 110.5,-108 110.5,-108 104.5,-108 98.5,-102 98.5,-96 98.5,-96 98.5,-84 98.5,-84 98.5,-78 104.5,-72 110.5,-72 110.5,-72 215.5,-72 215.5,-72 221.5,-72 227.5,-78 227.5,-84 227.5,-84 227.5,-96 227.5,-96 227.5,-102 221.5,-108 215.5,-108"/>
<text text-anchor="middle" x="163" y="-87.5" font-family="sans" font-size="10.00" fill="#000000">step4_geneRFECV</text>
</g>
<!-- 1&#45;&gt;0 -->
<g id="edge1" class="edge">
<title>1&#45;&gt;0</title>
<path fill="none" stroke="#c0c0c0" stroke-width="2" d="M206.6552,-71.8314C235.2721,-59.9214 272.259,-44.5281 299.3462,-33.2548"/>
<polygon fill="#c0c0c0" stroke="#c0c0c0" stroke-width="2" points="300.9564,-36.3757 308.8439,-29.302 298.2667,-29.9131 300.9564,-36.3757"/>
</g>
<!-- 2 -->
<g id="node3" class="node">
<title>2</title>
<path fill="none" stroke="#59d856" stroke-width="2" d="M200,-180C200,-180 72,-180 72,-180 66,-180 60,-174 60,-168 60,-168 60,-156 60,-156 60,-150 66,-144 72,-144 72,-144 200,-144 200,-144 206,-144 212,-150 212,-156 212,-156 212,-168 212,-168 212,-174 206,-180 200,-180"/>
<text text-anchor="middle" x="136" y="-159.5" font-family="sans" font-size="10.00" fill="#000000">step3_geneExprDiff</text>
</g>
<!-- 2&#45;&gt;1 -->
<g id="edge4" class="edge">
<title>2&#45;&gt;1</title>
<path fill="none" stroke="#c0c0c0" stroke-width="2" d="M142.8132,-143.8314C145.7644,-135.9617 149.2858,-126.5712 152.555,-117.8533"/>
<polygon fill="#c0c0c0" stroke="#c0c0c0" stroke-width="2" points="155.8609,-119.0055 156.095,-108.4133 149.3066,-116.5476 155.8609,-119.0055"/>
</g>
<!-- 3 -->
<g id="node4" class="node">
<title>3</title>
<path fill="none" stroke="#97d856" stroke-width="2" d="M200,-252C200,-252 12,-252 12,-252 6,-252 0,-246 0,-240 0,-240 0,-228 0,-228 0,-222 6,-216 12,-216 12,-216 200,-216 200,-216 206,-216 212,-222 212,-228 212,-228 212,-240 212,-240 212,-246 206,-252 200,-252"/>
<text text-anchor="middle" x="106" y="-231.5" font-family="sans" font-size="10.00" fill="#000000">step2_activationScoreRFECV</text>
</g>
<!-- 3&#45;&gt;2 -->
<g id="edge5" class="edge">
<title>3&#45;&gt;2</title>
<path fill="none" stroke="#c0c0c0" stroke-width="2" d="M113.5703,-215.8314C116.8493,-207.9617 120.762,-198.5712 124.3945,-189.8533"/>
<polygon fill="#c0c0c0" stroke="#c0c0c0" stroke-width="2" points="127.7124,-190.9902 128.3278,-180.4133 121.2508,-188.2979 127.7124,-190.9902"/>
</g>
<!-- 4 -->
<g id="node5" class="node">
<title>4</title>
<path fill="none" stroke="#d85656" stroke-width="2" d="M196,-324C196,-324 16,-324 16,-324 10,-324 4,-318 4,-312 4,-312 4,-300 4,-300 4,-294 10,-288 16,-288 16,-288 196,-288 196,-288 202,-288 208,-294 208,-300 208,-300 208,-312 208,-312 208,-318 202,-324 196,-324"/>
<text text-anchor="middle" x="106" y="-303.5" font-family="sans" font-size="10.00" fill="#000000">step1_activationScoreDiff</text>
</g>
<!-- 4&#45;&gt;3 -->
<g id="edge6" class="edge">
<title>4&#45;&gt;3</title>
<path fill="none" stroke="#c0c0c0" stroke-width="2" d="M106,-287.8314C106,-280.131 106,-270.9743 106,-262.4166"/>
<polygon fill="#c0c0c0" stroke="#c0c0c0" stroke-width="2" points="109.5001,-262.4132 106,-252.4133 102.5001,-262.4133 109.5001,-262.4132"/>
</g>
<!-- 5 -->
<g id="node6" class="node">
<title>5</title>
<path fill="none" stroke="#56d8d8" stroke-width="2" d="M192.5,-396C192.5,-396 19.5,-396 19.5,-396 13.5,-396 7.5,-390 7.5,-384 7.5,-384 7.5,-372 7.5,-372 7.5,-366 13.5,-360 19.5,-360 19.5,-360 192.5,-360 192.5,-360 198.5,-360 204.5,-366 204.5,-372 204.5,-372 204.5,-384 204.5,-384 204.5,-390 198.5,-396 192.5,-396"/>
<text text-anchor="middle" x="106" y="-375.5" font-family="sans" font-size="10.00" fill="#000000">get_all_activation_score</text>
</g>
<!-- 5&#45;&gt;4 -->
<g id="edge7" class="edge">
<title>5&#45;&gt;4</title>
<path fill="none" stroke="#c0c0c0" stroke-width="2" d="M106,-359.8314C106,-352.131 106,-342.9743 106,-334.4166"/>
<polygon fill="#c0c0c0" stroke="#c0c0c0" stroke-width="2" points="109.5001,-334.4132 106,-324.4133 102.5001,-334.4133 109.5001,-334.4132"/>
</g>
<!-- 6 -->
<g id="node7" class="node">
<title>6</title>
<path fill="none" stroke="#d89556" stroke-width="2" d="M151,-468C151,-468 61,-468 61,-468 55,-468 49,-462 49,-456 49,-456 49,-444 49,-444 49,-438 55,-432 61,-432 61,-432 151,-432 151,-432 157,-432 163,-438 163,-444 163,-444 163,-456 163,-456 163,-462 157,-468 151,-468"/>
<text text-anchor="middle" x="106" y="-447.5" font-family="sans" font-size="10.00" fill="#000000">id_conversion</text>
</g>
<!-- 6&#45;&gt;5 -->
<g id="edge8" class="edge">
<title>6&#45;&gt;5</title>
<path fill="none" stroke="#c0c0c0" stroke-width="2" d="M106,-431.8314C106,-424.131 106,-414.9743 106,-406.4166"/>
<polygon fill="#c0c0c0" stroke="#c0c0c0" stroke-width="2" points="109.5001,-406.4132 106,-396.4133 102.5001,-406.4133 109.5001,-406.4132"/>
</g>
<!-- 7 -->
<g id="node8" class="node">
<title>7</title>
<path fill="none" stroke="#d6d856" stroke-width="2" d="M181,-540C181,-540 31,-540 31,-540 25,-540 19,-534 19,-528 19,-528 19,-516 19,-516 19,-510 25,-504 31,-504 31,-504 181,-504 181,-504 187,-504 193,-510 193,-516 193,-516 193,-528 193,-528 193,-534 187,-540 181,-540"/>
<text text-anchor="middle" x="106" y="-525" font-family="sans" font-size="10.00" fill="#000000">clean_normalized_data</text>
<text text-anchor="middle" x="106" y="-514" font-family="sans" font-size="10.00" fill="#000000">sample: CD4</text>
</g>
<!-- 7&#45;&gt;6 -->
<g id="edge9" class="edge">
<title>7&#45;&gt;6</title>
<path fill="none" stroke="#c0c0c0" stroke-width="2" d="M106,-503.8314C106,-496.131 106,-486.9743 106,-478.4166"/>
<polygon fill="#c0c0c0" stroke="#c0c0c0" stroke-width="2" points="109.5001,-478.4132 106,-468.4133 102.5001,-478.4133 109.5001,-478.4132"/>
</g>
<!-- 8 -->
<g id="node9" class="node">
<title>8</title>
<path fill="none" stroke="#56d89a" stroke-width="2" d="M388.5,-108C388.5,-108 283.5,-108 283.5,-108 277.5,-108 271.5,-102 271.5,-96 271.5,-96 271.5,-84 271.5,-84 271.5,-78 277.5,-72 283.5,-72 283.5,-72 388.5,-72 388.5,-72 394.5,-72 400.5,-78 400.5,-84 400.5,-84 400.5,-96 400.5,-96 400.5,-102 394.5,-108 388.5,-108"/>
<text text-anchor="middle" x="336" y="-87.5" font-family="sans" font-size="10.00" fill="#000000">step4_geneRFECV</text>
</g>
<!-- 8&#45;&gt;0 -->
<g id="edge2" class="edge">
<title>8&#45;&gt;0</title>
<path fill="none" stroke="#c0c0c0" stroke-width="2" d="M336,-71.8314C336,-64.131 336,-54.9743 336,-46.4166"/>
<polygon fill="#c0c0c0" stroke="#c0c0c0" stroke-width="2" points="339.5001,-46.4132 336,-36.4133 332.5001,-46.4133 339.5001,-46.4132"/>
</g>
<!-- 9 -->
<g id="node10" class="node">
<title>9</title>
<path fill="none" stroke="#59d856" stroke-width="2" d="M400,-180C400,-180 272,-180 272,-180 266,-180 260,-174 260,-168 260,-168 260,-156 260,-156 260,-150 266,-144 272,-144 272,-144 400,-144 400,-144 406,-144 412,-150 412,-156 412,-156 412,-168 412,-168 412,-174 406,-180 400,-180"/>
<text text-anchor="middle" x="336" y="-159.5" font-family="sans" font-size="10.00" fill="#000000">step3_geneExprDiff</text>
</g>
<!-- 9&#45;&gt;8 -->
<g id="edge10" class="edge">
<title>9&#45;&gt;8</title>
<path fill="none" stroke="#c0c0c0" stroke-width="2" d="M336,-143.8314C336,-136.131 336,-126.9743 336,-118.4166"/>
<polygon fill="#c0c0c0" stroke="#c0c0c0" stroke-width="2" points="339.5001,-118.4132 336,-108.4133 332.5001,-118.4133 339.5001,-118.4132"/>
</g>
<!-- 10 -->
<g id="node11" class="node">
<title>10</title>
<path fill="none" stroke="#97d856" stroke-width="2" d="M430,-252C430,-252 242,-252 242,-252 236,-252 230,-246 230,-240 230,-240 230,-228 230,-228 230,-222 236,-216 242,-216 242,-216 430,-216 430,-216 436,-216 442,-222 442,-228 442,-228 442,-240 442,-240 442,-246 436,-252 430,-252"/>
<text text-anchor="middle" x="336" y="-231.5" font-family="sans" font-size="10.00" fill="#000000">step2_activationScoreRFECV</text>
</g>
<!-- 10&#45;&gt;9 -->
<g id="edge11" class="edge">
<title>10&#45;&gt;9</title>
<path fill="none" stroke="#c0c0c0" stroke-width="2" d="M336,-215.8314C336,-208.131 336,-198.9743 336,-190.4166"/>
<polygon fill="#c0c0c0" stroke="#c0c0c0" stroke-width="2" points="339.5001,-190.4132 336,-180.4133 332.5001,-190.4133 339.5001,-190.4132"/>
</g>
<!-- 11 -->
<g id="node12" class="node">
<title>11</title>
<path fill="none" stroke="#d85656" stroke-width="2" d="M426,-324C426,-324 246,-324 246,-324 240,-324 234,-318 234,-312 234,-312 234,-300 234,-300 234,-294 240,-288 246,-288 246,-288 426,-288 426,-288 432,-288 438,-294 438,-300 438,-300 438,-312 438,-312 438,-318 432,-324 426,-324"/>
<text text-anchor="middle" x="336" y="-303.5" font-family="sans" font-size="10.00" fill="#000000">step1_activationScoreDiff</text>
</g>
<!-- 11&#45;&gt;10 -->
<g id="edge12" class="edge">
<title>11&#45;&gt;10</title>
<path fill="none" stroke="#c0c0c0" stroke-width="2" d="M336,-287.8314C336,-280.131 336,-270.9743 336,-262.4166"/>
<polygon fill="#c0c0c0" stroke="#c0c0c0" stroke-width="2" points="339.5001,-262.4132 336,-252.4133 332.5001,-262.4133 339.5001,-262.4132"/>
</g>
<!-- 12 -->
<g id="node13" class="node">
<title>12</title>
<path fill="none" stroke="#56d8d8" stroke-width="2" d="M422.5,-396C422.5,-396 249.5,-396 249.5,-396 243.5,-396 237.5,-390 237.5,-384 237.5,-384 237.5,-372 237.5,-372 237.5,-366 243.5,-360 249.5,-360 249.5,-360 422.5,-360 422.5,-360 428.5,-360 434.5,-366 434.5,-372 434.5,-372 434.5,-384 434.5,-384 434.5,-390 428.5,-396 422.5,-396"/>
<text text-anchor="middle" x="336" y="-375.5" font-family="sans" font-size="10.00" fill="#000000">get_all_activation_score</text>
</g>
<!-- 12&#45;&gt;11 -->
<g id="edge13" class="edge">
<title>12&#45;&gt;11</title>
<path fill="none" stroke="#c0c0c0" stroke-width="2" d="M336,-359.8314C336,-352.131 336,-342.9743 336,-334.4166"/>
<polygon fill="#c0c0c0" stroke="#c0c0c0" stroke-width="2" points="339.5001,-334.4132 336,-324.4133 332.5001,-334.4133 339.5001,-334.4132"/>
</g>
<!-- 13 -->
<g id="node14" class="node">
<title>13</title>
<path fill="none" stroke="#d89556" stroke-width="2" d="M381,-468C381,-468 291,-468 291,-468 285,-468 279,-462 279,-456 279,-456 279,-444 279,-444 279,-438 285,-432 291,-432 291,-432 381,-432 381,-432 387,-432 393,-438 393,-444 393,-444 393,-456 393,-456 393,-462 387,-468 381,-468"/>
<text text-anchor="middle" x="336" y="-447.5" font-family="sans" font-size="10.00" fill="#000000">id_conversion</text>
</g>
<!-- 13&#45;&gt;12 -->
<g id="edge14" class="edge">
<title>13&#45;&gt;12</title>
<path fill="none" stroke="#c0c0c0" stroke-width="2" d="M336,-431.8314C336,-424.131 336,-414.9743 336,-406.4166"/>
<polygon fill="#c0c0c0" stroke="#c0c0c0" stroke-width="2" points="339.5001,-406.4132 336,-396.4133 332.5001,-406.4133 339.5001,-406.4132"/>
</g>
<!-- 14 -->
<g id="node15" class="node">
<title>14</title>
<path fill="none" stroke="#d6d856" stroke-width="2" d="M411,-540C411,-540 261,-540 261,-540 255,-540 249,-534 249,-528 249,-528 249,-516 249,-516 249,-510 255,-504 261,-504 261,-504 411,-504 411,-504 417,-504 423,-510 423,-516 423,-516 423,-528 423,-528 423,-534 417,-540 411,-540"/>
<text text-anchor="middle" x="336" y="-525" font-family="sans" font-size="10.00" fill="#000000">clean_normalized_data</text>
<text text-anchor="middle" x="336" y="-514" font-family="sans" font-size="10.00" fill="#000000">sample: CD8</text>
</g>
<!-- 14&#45;&gt;13 -->
<g id="edge15" class="edge">
<title>14&#45;&gt;13</title>
<path fill="none" stroke="#c0c0c0" stroke-width="2" d="M336,-503.8314C336,-496.131 336,-486.9743 336,-478.4166"/>
<polygon fill="#c0c0c0" stroke="#c0c0c0" stroke-width="2" points="339.5001,-478.4132 336,-468.4133 332.5001,-478.4133 339.5001,-478.4132"/>
</g>
<!-- 15 -->
<g id="node16" class="node">
<title>15</title>
<path fill="none" stroke="#56d89a" stroke-width="2" d="M561.5,-108C561.5,-108 456.5,-108 456.5,-108 450.5,-108 444.5,-102 444.5,-96 444.5,-96 444.5,-84 444.5,-84 444.5,-78 450.5,-72 456.5,-72 456.5,-72 561.5,-72 561.5,-72 567.5,-72 573.5,-78 573.5,-84 573.5,-84 573.5,-96 573.5,-96 573.5,-102 567.5,-108 561.5,-108"/>
<text text-anchor="middle" x="509" y="-87.5" font-family="sans" font-size="10.00" fill="#000000">step4_geneRFECV</text>
</g>
<!-- 15&#45;&gt;0 -->
<g id="edge3" class="edge">
<title>15&#45;&gt;0</title>
<path fill="none" stroke="#c0c0c0" stroke-width="2" d="M465.3448,-71.8314C436.7279,-59.9214 399.741,-44.5281 372.6538,-33.2548"/>
<polygon fill="#c0c0c0" stroke="#c0c0c0" stroke-width="2" points="373.7333,-29.9131 363.1561,-29.302 371.0436,-36.3757 373.7333,-29.9131"/>
</g>
<!-- 16 -->
<g id="node17" class="node">
<title>16</title>
<path fill="none" stroke="#59d856" stroke-width="2" d="M600,-180C600,-180 472,-180 472,-180 466,-180 460,-174 460,-168 460,-168 460,-156 460,-156 460,-150 466,-144 472,-144 472,-144 600,-144 600,-144 606,-144 612,-150 612,-156 612,-156 612,-168 612,-168 612,-174 606,-180 600,-180"/>
<text text-anchor="middle" x="536" y="-159.5" font-family="sans" font-size="10.00" fill="#000000">step3_geneExprDiff</text>
</g>
<!-- 16&#45;&gt;15 -->
<g id="edge16" class="edge">
<title>16&#45;&gt;15</title>
<path fill="none" stroke="#c0c0c0" stroke-width="2" d="M529.1868,-143.8314C526.2356,-135.9617 522.7142,-126.5712 519.445,-117.8533"/>
<polygon fill="#c0c0c0" stroke="#c0c0c0" stroke-width="2" points="522.6934,-116.5476 515.905,-108.4133 516.1391,-119.0055 522.6934,-116.5476"/>
</g>
<!-- 17 -->
<g id="node18" class="node">
<title>17</title>
<path fill="none" stroke="#97d856" stroke-width="2" d="M660,-252C660,-252 472,-252 472,-252 466,-252 460,-246 460,-240 460,-240 460,-228 460,-228 460,-222 466,-216 472,-216 472,-216 660,-216 660,-216 666,-216 672,-222 672,-228 672,-228 672,-240 672,-240 672,-246 666,-252 660,-252"/>
<text text-anchor="middle" x="566" y="-231.5" font-family="sans" font-size="10.00" fill="#000000">step2_activationScoreRFECV</text>
</g>
<!-- 17&#45;&gt;16 -->
<g id="edge17" class="edge">
<title>17&#45;&gt;16</title>
<path fill="none" stroke="#c0c0c0" stroke-width="2" d="M558.4297,-215.8314C555.1507,-207.9617 551.238,-198.5712 547.6055,-189.8533"/>
<polygon fill="#c0c0c0" stroke="#c0c0c0" stroke-width="2" points="550.7492,-188.2979 543.6722,-180.4133 544.2876,-190.9902 550.7492,-188.2979"/>
</g>
<!-- 18 -->
<g id="node19" class="node">
<title>18</title>
<path fill="none" stroke="#d85656" stroke-width="2" d="M656,-324C656,-324 476,-324 476,-324 470,-324 464,-318 464,-312 464,-312 464,-300 464,-300 464,-294 470,-288 476,-288 476,-288 656,-288 656,-288 662,-288 668,-294 668,-300 668,-300 668,-312 668,-312 668,-318 662,-324 656,-324"/>
<text text-anchor="middle" x="566" y="-303.5" font-family="sans" font-size="10.00" fill="#000000">step1_activationScoreDiff</text>
</g>
<!-- 18&#45;&gt;17 -->
<g id="edge18" class="edge">
<title>18&#45;&gt;17</title>
<path fill="none" stroke="#c0c0c0" stroke-width="2" d="M566,-287.8314C566,-280.131 566,-270.9743 566,-262.4166"/>
<polygon fill="#c0c0c0" stroke="#c0c0c0" stroke-width="2" points="569.5001,-262.4132 566,-252.4133 562.5001,-262.4133 569.5001,-262.4132"/>
</g>
<!-- 19 -->
<g id="node20" class="node">
<title>19</title>
<path fill="none" stroke="#56d8d8" stroke-width="2" d="M652.5,-396C652.5,-396 479.5,-396 479.5,-396 473.5,-396 467.5,-390 467.5,-384 467.5,-384 467.5,-372 467.5,-372 467.5,-366 473.5,-360 479.5,-360 479.5,-360 652.5,-360 652.5,-360 658.5,-360 664.5,-366 664.5,-372 664.5,-372 664.5,-384 664.5,-384 664.5,-390 658.5,-396 652.5,-396"/>
<text text-anchor="middle" x="566" y="-375.5" font-family="sans" font-size="10.00" fill="#000000">get_all_activation_score</text>
</g>
<!-- 19&#45;&gt;18 -->
<g id="edge19" class="edge">
<title>19&#45;&gt;18</title>
<path fill="none" stroke="#c0c0c0" stroke-width="2" d="M566,-359.8314C566,-352.131 566,-342.9743 566,-334.4166"/>
<polygon fill="#c0c0c0" stroke="#c0c0c0" stroke-width="2" points="569.5001,-334.4132 566,-324.4133 562.5001,-334.4133 569.5001,-334.4132"/>
</g>
<!-- 20 -->
<g id="node21" class="node">
<title>20</title>
<path fill="none" stroke="#d89556" stroke-width="2" d="M611,-468C611,-468 521,-468 521,-468 515,-468 509,-462 509,-456 509,-456 509,-444 509,-444 509,-438 515,-432 521,-432 521,-432 611,-432 611,-432 617,-432 623,-438 623,-444 623,-444 623,-456 623,-456 623,-462 617,-468 611,-468"/>
<text text-anchor="middle" x="566" y="-447.5" font-family="sans" font-size="10.00" fill="#000000">id_conversion</text>
</g>
<!-- 20&#45;&gt;19 -->
<g id="edge20" class="edge">
<title>20&#45;&gt;19</title>
<path fill="none" stroke="#c0c0c0" stroke-width="2" d="M566,-431.8314C566,-424.131 566,-414.9743 566,-406.4166"/>
<polygon fill="#c0c0c0" stroke="#c0c0c0" stroke-width="2" points="569.5001,-406.4132 566,-396.4133 562.5001,-406.4133 569.5001,-406.4132"/>
</g>
<!-- 21 -->
<g id="node22" class="node">
<title>21</title>
<path fill="none" stroke="#d6d856" stroke-width="2" d="M641,-540C641,-540 491,-540 491,-540 485,-540 479,-534 479,-528 479,-528 479,-516 479,-516 479,-510 485,-504 491,-504 491,-504 641,-504 641,-504 647,-504 653,-510 653,-516 653,-516 653,-528 653,-528 653,-534 647,-540 641,-540"/>
<text text-anchor="middle" x="566" y="-525" font-family="sans" font-size="10.00" fill="#000000">clean_normalized_data</text>
<text text-anchor="middle" x="566" y="-514" font-family="sans" font-size="10.00" fill="#000000">sample: CD14</text>
</g>
<!-- 21&#45;&gt;20 -->
<g id="edge21" class="edge">
<title>21&#45;&gt;20</title>
<path fill="none" stroke="#c0c0c0" stroke-width="2" d="M566,-503.8314C566,-496.131 566,-486.9743 566,-478.4166"/>
<polygon fill="#c0c0c0" stroke="#c0c0c0" stroke-width="2" points="569.5001,-478.4132 566,-468.4133 562.5001,-478.4133 569.5001,-478.4132"/>
</g>
</g>
</svg>
